<?xml version="1.0" standalone="no"?>
<!DOCTYPE svg PUBLIC "-//W3C//DTD SVG 20010904//EN"
 "http://www.w3.org/TR/2001/REC-SVG-20010904/DTD/svg10.dtd">
<svg version="1.0" xmlns="http://www.w3.org/2000/svg"
 width="2138.000000pt" height="2138.000000pt" viewBox="0 0 2138.000000 2138.000000"
 preserveAspectRatio="xMidYMid meet">

<g transform="translate(0.000000,2138.000000) scale(0.100000,-0.100000)"
fill="#000000" stroke="none">
<path d="M10395 20024 c-38 -2 -176 -8 -305 -14 -230 -10 -313 -16 -615 -46
-150 -14 -198 -20 -415 -49 -597 -81 -1282 -231 -1817 -399 -46 -14 -118 -37
-160 -50 -43 -13 -130 -42 -193 -64 -63 -22 -144 -49 -180 -62 -36 -12 -74
-25 -85 -30 -11 -4 -36 -14 -55 -22 -19 -8 -51 -21 -70 -28 -19 -6 -44 -16
-55 -21 -11 -4 -56 -22 -100 -39 -44 -17 -99 -40 -122 -50 -24 -11 -45 -20
-49 -20 -3 0 -30 -11 -60 -25 -30 -14 -57 -25 -61 -25 -3 0 -29 -11 -57 -24
-28 -14 -76 -36 -106 -49 -170 -77 -495 -236 -636 -312 -35 -19 -92 -50 -126
-69 -121 -65 -163 -89 -190 -107 -14 -11 -29 -19 -32 -19 -3 0 -46 -24 -94
-53 -48 -29 -116 -70 -152 -92 -184 -109 -680 -449 -860 -589 -430 -334 -671
-546 -1031 -905 -241 -241 -371 -381 -540 -581 -852 -1008 -1455 -2125 -1794
-3325 -146 -517 -230 -981 -287 -1585 -29 -315 -32 -987 -5 -1290 31 -336 66
-611 112 -862 286 -1573 1009 -3025 2135 -4293 144 -161 567 -589 716 -723
240 -215 577 -492 783 -642 56 -41 118 -86 136 -100 73 -55 175 -125 370 -254
494 -326 1048 -626 1630 -881 17 -8 55 -24 85 -38 175 -77 748 -294 870 -329
19 -5 80 -25 135 -43 55 -18 127 -40 160 -50 33 -9 71 -21 85 -25 27 -10 252
-73 316 -89 173 -43 258 -64 310 -76 34 -7 90 -20 125 -29 137 -33 437 -90
664 -126 66 -11 149 -24 185 -30 60 -9 186 -26 385 -50 44 -5 159 -16 255 -25
96 -8 229 -20 295 -26 66 -6 352 -13 635 -16 598 -6 900 5 1360 52 309 31 624
75 910 126 36 6 74 13 85 14 11 2 43 8 70 14 28 6 73 15 100 21 28 5 82 16
120 25 39 8 92 20 118 25 63 13 318 75 432 106 417 112 788 232 1160 374 131
50 313 124 372 151 24 10 45 19 47 19 3 0 35 14 73 31 37 17 82 37 98 44 108
48 196 90 390 186 207 103 276 139 420 219 33 18 80 45 105 58 25 14 62 36 82
49 21 12 40 23 43 23 3 0 47 26 98 58 51 32 99 61 107 65 8 4 27 15 41 25 15
9 76 48 135 86 269 171 723 497 899 645 17 14 51 42 75 61 225 179 518 446
784 714 912 920 1611 1988 2054 3141 118 306 254 741 317 1010 14 61 34 146
45 190 11 44 37 179 59 300 180 986 180 1988 0 2980 -350 1931 -1389 3716
-2981 5122 -246 217 -685 558 -973 756 -208 143 -589 381 -785 490 -30 17 -75
42 -100 55 -136 77 -209 115 -455 236 -148 73 -286 140 -305 149 -286 128
-627 266 -845 344 -178 62 -531 178 -640 209 -66 19 -142 41 -170 49 -110 32
-603 155 -690 171 -5 1 -37 7 -70 14 -145 29 -293 56 -440 81 -66 10 -145 24
-175 29 -30 5 -109 16 -175 25 -66 9 -151 20 -190 25 -66 9 -239 26 -505 50
-276 25 -1014 45 -1235 34z m1025 -253 c165 -10 229 -16 495 -42 185 -19 559
-68 680 -89 33 -6 98 -17 145 -25 96 -15 283 -51 348 -65 56 -13 111 -25 202
-45 41 -8 91 -20 110 -25 19 -6 73 -19 120 -30 47 -11 153 -38 235 -61 159
-43 179 -48 265 -74 30 -9 69 -20 85 -25 217 -60 838 -282 1012 -361 23 -10
44 -19 47 -19 3 0 31 -12 63 -26 32 -14 72 -31 88 -39 414 -184 648 -300 985
-488 89 -49 129 -73 187 -109 34 -21 65 -38 67 -38 3 0 83 -49 178 -108 185
-116 303 -196 548 -367 59 -41 246 -180 290 -215 25 -20 90 -72 145 -115 92
-73 273 -222 285 -235 3 -3 23 -20 45 -39 172 -146 651 -615 815 -798 582
-651 1016 -1285 1386 -2023 497 -995 782 -2057 845 -3154 15 -258 6 -921 -15
-1156 -118 -1303 -533 -2520 -1251 -3670 -548 -878 -1326 -1734 -2191 -2408
-65 -51 -126 -99 -134 -106 -156 -127 -776 -541 -1000 -668 -25 -14 -74 -42
-110 -62 -213 -123 -335 -188 -615 -325 -132 -65 -256 -125 -275 -134 -19 -8
-64 -29 -100 -45 -382 -174 -1029 -408 -1460 -529 -30 -8 -66 -19 -80 -24 -14
-5 -43 -13 -65 -18 -22 -5 -112 -28 -200 -51 -88 -22 -180 -45 -205 -51 -25
-5 -61 -14 -80 -19 -35 -8 -111 -25 -250 -53 -124 -26 -341 -66 -415 -77 -38
-6 -97 -15 -130 -21 -309 -50 -663 -88 -1125 -120 -229 -16 -1169 -16 -1395
-1 -376 27 -620 50 -850 82 -38 5 -119 17 -180 25 -60 8 -132 19 -160 25 -27
5 -95 17 -150 25 -108 18 -412 77 -510 100 -33 8 -94 22 -135 31 -188 42 -576
146 -690 184 -30 10 -102 32 -160 50 -160 48 -441 145 -555 190 -11 4 -92 36
-180 70 -88 35 -184 73 -213 86 -29 13 -55 24 -57 24 -2 0 -28 11 -57 24 -110
50 -190 86 -193 86 -7 0 -248 116 -400 192 -192 97 -217 110 -585 316 -164 92
-571 356 -795 516 -227 161 -670 507 -725 566 -3 3 -23 20 -45 39 -522 443
-1105 1084 -1517 1666 -914 1294 -1426 2704 -1540 4240 -16 215 -16 881 0
1085 56 718 183 1356 399 1999 617 1844 1886 3468 3638 4656 500 339 1145 694
1685 927 63 27 129 55 145 63 17 7 71 30 120 50 50 20 99 40 110 44 57 25 93
39 125 51 19 6 44 16 55 20 106 44 471 168 700 238 295 91 778 213 1050 267
44 8 100 19 125 25 25 5 88 16 140 25 52 9 118 20 145 25 49 10 191 31 330 50
39 5 102 14 140 20 130 19 410 45 630 60 88 6 216 15 285 19 167 12 1080 6
1300 -8z"/>
<path d="M7922 18538 c-7 -7 -12 -26 -12 -44 0 -51 -11 -91 -31 -113 -22 -24
-92 -45 -120 -36 -21 7 -49 53 -49 83 0 36 -24 55 -59 47 -113 -25 -86 -246
37 -307 87 -42 234 -2 303 81 64 77 79 223 29 276 -26 27 -77 34 -98 13z"/>
<path d="M10483 18471 c-86 -22 -181 -107 -231 -208 -57 -113 -67 -163 -67
-338 0 -128 4 -172 19 -220 75 -240 224 -357 417 -325 189 32 318 282 203 397
-34 34 -55 26 -84 -35 -47 -98 -110 -140 -192 -129 -57 8 -102 47 -140 124
-32 65 -33 72 -33 188 0 114 2 123 32 187 40 86 94 128 162 128 71 0 119 -33
159 -108 18 -34 40 -62 48 -62 50 0 84 54 84 132 0 100 -73 208 -170 250 -50
22 -158 32 -207 19z"/>
<path d="M9947 18440 c-21 -4 -43 -12 -50 -19 -9 -9 -11 -65 -9 -205 l4 -193
-114 -11 c-63 -7 -132 -12 -155 -12 l-40 0 -7 173 c-4 94 -10 182 -13 195 -8
32 -40 42 -108 33 -89 -12 -88 -10 -81 -251 16 -537 28 -766 39 -790 11 -23
19 -25 79 -28 58 -2 70 0 89 19 21 21 22 26 16 216 -5 192 -5 193 16 198 32 6
281 25 285 21 2 -2 7 -86 11 -187 4 -112 12 -193 19 -206 11 -20 21 -23 70
-23 68 0 103 16 112 51 4 14 -1 242 -10 507 -16 435 -19 484 -35 502 -19 21
-50 24 -118 10z"/>
<path d="M10906 18428 c-11 -15 -16 -45 -16 -95 0 -104 10 -111 160 -115 l85
-3 -3 -397 c-3 -390 -3 -397 17 -417 17 -17 34 -21 86 -21 99 0 93 -22 104
428 4 211 11 385 15 389 3 4 50 6 104 4 68 -1 102 2 115 11 24 18 45 149 29
183 -13 29 -36 32 -337 45 -329 15 -341 14 -359 -12z"/>
<path d="M11687 18402 c-23 -25 -24 -42 -48 -545 -23 -492 -23 -489 40 -507
55 -15 76 -12 102 14 13 13 98 137 189 275 91 138 169 251 174 251 5 0 6 -43
2 -100 -3 -55 -9 -181 -13 -278 l-6 -178 28 -22 c21 -17 41 -22 87 -22 57 0
59 1 72 33 8 17 17 88 20 157 4 69 13 251 21 405 19 353 19 426 1 450 -17 23
-118 34 -142 14 -8 -7 -94 -132 -190 -277 -96 -146 -177 -263 -179 -260 -2 2
1 116 8 253 15 308 15 311 -26 336 -42 25 -118 26 -140 1z"/>
<path d="M9112 18357 c-28 -13 -32 -21 -189 -362 -68 -148 -128 -274 -134
-279 -6 -6 -9 -3 -9 10 1 86 -35 514 -44 534 -11 23 -17 25 -78 25 -52 0 -71
-4 -88 -20 -22 -19 -22 -24 -16 -160 13 -279 56 -836 66 -855 17 -32 44 -41
91 -31 23 5 50 18 60 28 15 16 257 526 281 596 24 66 29 32 49 -298 15 -252
23 -269 126 -247 32 6 64 20 71 29 17 24 15 104 -17 575 -32 474 -31 468 -104
467 -23 0 -52 -5 -65 -12z"/>
<path d="M12459 18303 c-9 -10 -15 -48 -17 -99 -4 -77 -3 -83 20 -97 12 -8 67
-23 122 -33 l99 -18 -6 -76 c-3 -41 -17 -216 -32 -388 -24 -287 -25 -315 -11
-337 29 -44 156 -62 176 -25 6 11 20 129 31 262 11 134 26 306 32 383 l12 140
40 -3 c22 -2 56 -7 75 -13 108 -28 140 -3 148 116 l5 74 -34 15 c-19 8 -65 19
-104 26 -38 6 -106 18 -150 26 -44 7 -105 18 -135 24 -30 5 -91 16 -136 25
-102 19 -118 19 -135 -2z"/>
<path d="M8073 18175 c-17 -7 -38 -24 -47 -37 -8 -13 -69 -160 -136 -328 -67
-168 -123 -307 -126 -309 -9 -10 -13 14 -38 239 -29 263 -38 305 -67 320 -25
14 -118 -11 -142 -38 -23 -25 -22 -74 8 -327 13 -115 35 -311 50 -435 16 -144
31 -232 40 -247 12 -18 25 -23 60 -23 77 0 91 21 206 310 55 140 110 280 121
310 37 100 37 100 63 -135 25 -225 42 -335 55 -350 16 -19 55 -19 112 0 67 23
74 43 60 168 -73 670 -94 836 -107 865 -12 27 -20 32 -47 32 -18 -1 -47 -7
-65 -15z"/>
<path d="M13209 18177 c-41 -31 -41 -44 2 -304 122 -740 118 -721 163 -736 13
-4 -17 -98 -54 -165 -34 -63 -64 -73 -130 -42 -48 22 -51 23 -69 6 -58 -53
-20 -208 64 -257 37 -21 116 -24 153 -5 37 20 85 72 119 131 44 75 456 1115
457 1151 0 46 -27 82 -70 90 -43 8 -77 -6 -101 -42 -10 -16 -73 -165 -140
-332 -66 -167 -124 -299 -127 -293 -4 5 -24 144 -46 308 -59 438 -59 440 -119
480 -37 25 -77 29 -102 10z"/>
<path d="M13952 17977 c-6 -7 -16 -43 -22 -80 -16 -103 -8 -114 117 -157 56
-19 105 -38 108 -41 5 -6 -49 -397 -90 -651 -23 -143 -14 -162 95 -194 52 -15
55 -15 71 4 16 21 42 165 94 532 34 241 34 240 51 240 9 0 49 -11 90 -25 122
-41 133 -37 159 60 32 124 55 108 -360 240 -115 36 -220 70 -233 76 -32 13
-68 11 -80 -4z"/>
<path d="M7283 17970 c-59 -14 -79 -35 -107 -112 -14 -40 -68 -194 -120 -342
-51 -148 -96 -264 -100 -258 -4 6 -22 118 -42 249 -38 257 -46 289 -76 298
-31 11 -118 -17 -139 -43 -25 -33 -25 -43 16 -314 70 -475 102 -664 114 -687
11 -21 18 -23 58 -18 25 3 57 14 72 24 30 23 30 24 161 398 54 153 102 281
107 282 6 2 18 -54 28 -124 37 -267 63 -397 82 -411 34 -25 146 12 165 54 9
19 8 50 -6 137 -9 62 -32 216 -51 342 -65 432 -78 498 -97 517 -20 20 -18 19
-65 8z"/>
<path d="M15175 17876 c-86 -33 -167 -108 -222 -206 -40 -71 -95 -230 -119
-345 -26 -124 -27 -411 -1 -505 42 -157 133 -287 235 -337 50 -24 69 -28 147
-28 106 0 145 16 217 89 89 90 137 226 145 411 10 229 -58 388 -201 474 -47
28 -70 35 -130 39 -84 5 -137 -13 -199 -68 -22 -19 -37 -26 -37 -19 0 28 59
138 96 179 78 86 157 99 336 55 133 -33 170 -33 197 1 38 48 80 215 62 243 -8
12 -16 13 -50 3 -41 -13 -56 -11 -230 19 -72 12 -209 9 -246 -5z m108 -619
c74 -56 114 -170 103 -294 -20 -243 -180 -357 -316 -224 -70 68 -94 138 -87
261 6 110 27 174 76 232 43 50 63 59 133 55 42 -2 65 -10 91 -30z"/>
<path d="M6485 17701 c-66 -29 -69 -38 -156 -363 -29 -109 -56 -198 -59 -198
-8 0 -20 53 -51 220 -27 148 -42 180 -81 180 -37 0 -102 -33 -122 -62 -23 -32
-21 -56 23 -281 22 -111 60 -310 86 -441 25 -132 50 -247 56 -257 15 -29 45
-31 99 -8 94 40 96 60 45 322 -20 99 -34 184 -33 189 2 5 77 -70 166 -166 151
-163 166 -176 198 -176 74 0 144 63 144 130 0 14 -30 54 -82 109 -46 47 -85
88 -88 91 -3 3 -40 42 -83 86 l-78 81 51 179 c28 98 60 209 70 246 25 83 25
93 0 118 -25 25 -53 25 -105 1z"/>
<path d="M5649 17337 c-130 -55 -212 -148 -266 -304 -25 -71 -27 -92 -28 -223
0 -122 4 -157 23 -224 35 -121 70 -184 142 -257 55 -56 73 -68 119 -79 188
-45 381 92 437 309 31 121 -10 221 -90 221 -31 0 -35 -6 -47 -82 -13 -78 -48
-140 -101 -178 -33 -24 -51 -30 -95 -30 -50 0 -56 3 -102 48 -73 71 -95 137
-96 282 0 102 3 121 24 164 69 138 193 176 281 85 27 -28 45 -39 57 -35 31 10
54 62 54 122 0 152 -160 245 -312 181z"/>
<path d="M15776 17271 c-20 -22 -236 -862 -236 -917 0 -49 7 -60 61 -95 43
-27 53 -30 75 -20 13 6 119 90 235 187 116 97 213 173 217 170 3 -4 -22 -118
-57 -254 -42 -169 -60 -257 -56 -275 9 -33 61 -78 111 -96 33 -12 38 -11 56 6
14 14 50 142 129 454 60 238 109 449 109 469 0 20 -6 43 -12 52 -24 29 -76 58
-105 58 -32 -1 -45 -10 -291 -217 -99 -83 -182 -150 -184 -147 -3 2 24 118 59
258 61 242 63 257 49 289 -9 23 -29 44 -58 60 -64 37 -82 40 -102 18z"/>
<path d="M4894 16914 c-97 -46 -162 -139 -188 -267 -12 -59 -13 -61 -26 -37
-7 14 -24 37 -38 53 -32 34 -87 37 -126 6 -47 -37 -49 -59 -17 -172 39 -137
317 -1103 330 -1145 21 -71 51 -79 123 -33 93 59 92 60 -24 449 -22 74 -37
136 -34 140 3 3 16 -4 29 -15 37 -34 63 -43 122 -43 71 0 119 24 178 90 112
125 152 315 112 541 -59 341 -249 527 -441 433z m127 -267 c115 -77 170 -325
106 -479 -22 -52 -71 -103 -115 -117 -36 -12 -43 -11 -88 11 -156 77 -208 406
-87 548 20 23 46 46 57 50 39 16 92 11 127 -13z"/>
<path d="M16547 16769 c-68 -36 -102 -165 -58 -220 18 -22 19 -23 62 -6 61 23
111 21 167 -7 109 -56 147 -128 107 -206 -31 -60 -62 -59 -157 5 -80 53 -92
49 -118 -37 -28 -92 -23 -104 84 -177 111 -76 138 -130 101 -201 -14 -26 -21
-30 -58 -30 -97 0 -205 107 -262 262 -23 62 -38 74 -71 59 -66 -30 -73 -187
-14 -308 46 -95 144 -189 247 -240 69 -34 86 -38 154 -38 67 0 80 3 112 27 20
16 48 53 64 85 23 49 28 70 27 133 -1 78 -25 155 -65 211 -10 15 -19 29 -19
32 0 2 19 7 42 10 76 10 128 73 148 177 28 148 -56 306 -220 414 -119 78 -199
94 -273 55z"/>
<path d="M4262 16490 c-23 -16 -48 -42 -56 -57 -12 -24 -58 -310 -109 -675 -6
-43 -13 -78 -17 -78 -4 0 -11 15 -17 33 -23 69 -142 393 -153 419 -7 15 -22
30 -32 34 -27 8 -112 -51 -135 -93 -21 -40 -14 -76 50 -253 25 -69 88 -244
141 -390 54 -152 102 -270 112 -277 10 -7 27 -10 38 -7 28 9 85 53 96 74 10
18 44 225 85 520 31 225 35 244 45 233 4 -4 35 -87 69 -183 106 -301 112 -311
163 -291 40 16 106 80 113 110 7 31 -18 112 -125 406 -34 94 -80 222 -102 285
-84 238 -90 245 -166 190z"/>
<path d="M17222 16360 c-7 -11 -25 -55 -41 -98 -16 -42 -81 -216 -146 -387
-138 -363 -137 -362 -129 -398 5 -26 112 -127 134 -127 20 0 46 42 74 117 15
43 42 113 58 155 l29 77 124 -101 c69 -55 130 -107 136 -114 8 -10 -2 -48 -44
-158 -31 -79 -59 -160 -62 -180 -9 -46 8 -72 81 -128 l56 -42 22 25 c12 14 47
92 78 174 31 83 100 265 153 405 55 145 98 272 98 294 2 34 -4 43 -53 87 -65
57 -98 63 -121 22 -9 -16 -38 -88 -65 -160 -27 -73 -53 -133 -57 -133 -8 0
-254 197 -262 210 -3 5 19 73 49 152 66 174 70 187 57 220 -13 34 -106 108
-134 108 -12 0 -28 -9 -35 -20z"/>
<path d="M3326 16268 c-12 -29 -76 -131 -141 -227 -65 -96 -128 -199 -141
-228 -106 -240 -94 -510 38 -810 71 -163 162 -273 273 -331 75 -38 171 -38
243 3 111 61 212 207 253 362 27 106 27 242 0 348 -72 278 -247 415 -419 329
-135 -67 -251 -275 -252 -449 0 -68 -16 -48 -36 46 -22 100 -14 222 19 311 32
82 38 92 164 257 116 151 132 187 115 261 -15 63 -67 180 -81 180 -6 0 -22
-24 -35 -52z m234 -807 c81 -58 136 -193 128 -315 -11 -166 -124 -294 -241
-272 -73 14 -146 121 -168 245 -40 224 140 443 281 342z"/>
<path d="M17976 15594 c-117 -43 -217 -173 -268 -349 -34 -120 -32 -299 5
-411 50 -152 173 -302 294 -359 121 -58 215 -7 217 116 1 69 -21 89 -96 89
-75 0 -121 23 -181 90 -67 74 -90 143 -85 253 3 52 9 92 17 100 10 10 55 -32
224 -206 117 -120 217 -218 224 -217 17 0 72 122 94 209 23 92 25 243 4 326
-67 261 -272 424 -449 359z m207 -245 c72 -59 105 -161 87 -269 -19 -111 -14
-112 -170 50 -77 80 -139 153 -140 162 0 9 19 33 42 52 36 31 49 36 93 36 42
0 57 -5 88 -31z"/>
<path d="M2773 15123 c-59 -74 -57 -57 -54 -475 1 -214 0 -388 -2 -388 -3 0
-55 86 -117 190 -62 105 -121 197 -132 204 -29 20 -50 9 -98 -52 -68 -85 -66
-112 18 -252 38 -63 135 -226 215 -361 80 -136 154 -249 163 -253 24 -9 56 15
94 71 l32 48 -4 388 c-2 213 -1 387 3 387 4 0 57 -85 119 -190 61 -104 118
-194 125 -200 26 -22 57 -5 104 54 73 92 72 97 -88 366 -299 503 -294 495
-322 498 -21 2 -33 -5 -56 -35z"/>
<path d="M18625 14861 c-103 -26 -209 -139 -265 -281 -87 -219 -57 -491 75
-675 124 -175 294 -219 363 -96 49 87 12 221 -49 183 -10 -7 -39 -12 -65 -12
-42 0 -50 4 -99 53 -86 86 -114 209 -80 342 22 83 64 154 114 193 100 76 225
14 276 -137 17 -53 19 -76 15 -170 -3 -57 0 -66 20 -83 46 -37 111 -8 130 60
15 55 12 189 -5 256 -35 134 -143 284 -243 339 -52 28 -137 41 -187 28z"/>
<path d="M2182 14225 c-121 -54 -225 -217 -268 -418 -42 -203 16 -440 141
-575 144 -156 305 -158 444 -6 57 62 111 163 142 264 44 143 26 333 -34 375
-29 20 -80 19 -99 -2 -25 -30 -27 -47 -11 -113 30 -131 -26 -287 -125 -347
-45 -28 -81 -29 -131 -4 -161 82 -212 350 -99 517 50 73 78 89 148 86 57 -2
58 -1 69 29 23 66 7 144 -37 183 -28 24 -98 30 -140 11z"/>
<path d="M19175 14121 c-66 -27 -92 -139 -49 -208 8 -13 22 -23 32 -23 112 0
219 -120 230 -257 4 -54 1 -70 -22 -118 -15 -30 -31 -55 -35 -55 -4 0 -18 19
-31 43 -81 146 -204 298 -267 330 -96 49 -179 12 -241 -108 -31 -61 -41 -178
-22 -264 34 -159 163 -311 262 -311 32 0 36 -15 11 -50 -40 -56 -1 -219 59
-251 26 -14 32 -9 261 266 155 186 185 236 207 340 35 170 -57 431 -205 580
-81 82 -137 107 -190 86z m-108 -531 c30 -18 109 -122 157 -205 l21 -37 -47
-44 c-41 -39 -52 -44 -92 -44 -55 0 -105 39 -140 109 -47 92 -45 158 3 210 34
36 54 38 98 11z"/>
<path d="M8880 13333 c-252 -418 -538 -810 -871 -1193 -192 -222 -509 -545
-724 -740 -38 -35 -90 -82 -115 -105 -160 -146 -530 -440 -787 -623 -227 -163
-621 -416 -788 -508 -11 -6 -56 -31 -100 -56 -140 -79 -214 -118 -374 -198
-193 -97 -413 -200 -425 -200 -3 0 -29 -11 -58 -24 -29 -12 -62 -27 -73 -31
-33 -12 -296 -105 -360 -126 -33 -11 -69 -24 -80 -29 -11 -4 -36 -14 -55 -21
-19 -7 -39 -15 -43 -19 -10 -9 352 -3 618 10 439 22 712 56 1150 141 380 74
749 172 1075 284 52 18 124 43 158 54 66 22 292 106 327 121 11 5 82 34 158
65 76 31 172 71 214 90 41 19 76 35 79 35 2 0 43 18 91 41 668 312 1261 656
1808 1049 219 157 279 208 266 224 -4 6 -74 142 -156 301 -81 160 -225 441
-320 625 -268 522 -398 776 -455 888 -28 56 -55 102 -58 102 -4 0 -50 -71
-102 -157z m110 -122 c0 -5 105 -213 233 -462 129 -250 307 -598 397 -774 90
-176 167 -324 171 -329 22 -25 -3 -49 -179 -175 -234 -166 -449 -306 -707
-459 -178 -106 -248 -146 -456 -260 -66 -37 -516 -262 -522 -262 -3 0 -53 -22
-111 -50 -58 -27 -108 -50 -111 -50 -2 0 -30 -12 -62 -26 -32 -14 -71 -31 -88
-39 -53 -23 -408 -162 -460 -180 -256 -88 -373 -127 -445 -149 -114 -35 -315
-93 -365 -105 -22 -5 -87 -21 -145 -36 -300 -74 -630 -134 -955 -174 -137 -16
-166 -18 -162 -8 2 6 79 49 172 96 538 274 1045 596 1545 980 537 412 1078
934 1501 1447 225 273 542 716 684 956 35 59 65 86 65 59z"/>
<path d="M13041 13369 c-289 -373 -688 -790 -1066 -1114 -39 -33 -72 -62 -75
-65 -3 -3 -30 -26 -60 -51 -344 -288 -773 -595 -1215 -872 -140 -88 -208 -129
-365 -219 -200 -116 -428 -238 -695 -372 -331 -167 -402 -201 -665 -318 -85
-38 -168 -75 -185 -83 -16 -7 -97 -41 -180 -75 -82 -34 -163 -67 -180 -75
-157 -68 -762 -289 -1050 -382 -60 -19 -135 -43 -165 -53 -116 -38 -372 -114
-475 -142 -22 -6 -51 -14 -65 -19 -14 -4 -72 -20 -130 -34 -58 -15 -107 -29
-110 -32 -8 -8 657 5 805 16 174 12 351 28 455 41 229 27 340 41 395 50 33 5
107 17 165 25 58 9 125 20 150 25 25 5 86 16 135 25 106 20 343 68 470 96 50
10 113 24 140 29 95 20 274 64 500 125 131 35 150 41 215 60 30 9 69 20 85 25
112 32 224 66 415 126 96 31 184 59 195 64 11 4 76 27 145 50 69 23 134 45
145 50 11 5 43 16 70 25 28 10 59 21 70 25 11 4 72 27 135 50 98 35 165 61
265 100 11 4 40 15 65 25 54 21 25 9 344 140 232 95 288 119 401 170 17 7 68
30 115 50 47 21 132 59 189 86 57 27 105 49 106 49 15 0 646 311 870 429 191
100 381 202 430 232 17 10 42 24 55 31 14 8 51 29 83 47 l57 33 -109 212 c-59
116 -164 319 -231 451 -68 132 -143 278 -168 325 -24 47 -119 229 -209 405
-91 176 -168 323 -172 327 -4 4 -49 -47 -100 -113z"/>
<path d="M16670 12276 c-19 -13 -57 -35 -85 -51 -406 -228 -857 -455 -1255
-632 -80 -36 -168 -75 -197 -88 -90 -42 -574 -242 -688 -285 -60 -23 -128 -50
-150 -60 -22 -10 -61 -25 -86 -33 -25 -9 -123 -45 -216 -81 -94 -36 -199 -75
-234 -86 -35 -12 -73 -25 -84 -30 -87 -37 -748 -260 -1065 -360 -91 -28 -176
-55 -190 -60 -14 -5 -72 -23 -130 -40 -58 -18 -116 -36 -130 -41 -22 -7 -574
-169 -685 -200 -22 -6 -60 -17 -85 -24 -25 -7 -54 -15 -65 -18 -11 -3 -67 -19
-125 -35 -109 -32 -201 -57 -355 -97 -49 -13 -160 -43 -245 -65 -189 -50 -812
-207 -970 -244 -63 -15 -171 -41 -240 -57 -369 -88 -448 -106 -670 -155 -91
-20 -181 -40 -200 -44 -19 -5 -71 -16 -115 -25 -44 -9 -96 -21 -115 -25 -19
-4 -69 -15 -110 -23 -41 -9 -129 -28 -195 -42 -105 -22 -577 -119 -645 -132
-14 -3 -101 -20 -195 -38 -93 -19 -244 -48 -335 -65 -91 -17 -185 -35 -210
-40 -25 -5 -85 -16 -135 -25 -49 -8 -112 -20 -140 -25 -49 -10 -164 -30 -275
-50 -58 -10 -191 -34 -250 -45 -50 -9 -614 -104 -680 -115 -30 -5 -100 -16
-155 -25 -113 -18 -218 -34 -255 -40 -14 -1 -68 -10 -120 -19 -52 -8 -142 -22
-200 -31 -58 -9 -132 -20 -165 -25 -59 -9 -199 -29 -360 -51 -122 -17 -162
-25 -145 -32 8 -3 94 -19 190 -37 96 -17 195 -35 220 -40 99 -19 169 -30 245
-41 73 -10 199 -28 235 -33 8 -2 44 -6 80 -10 36 -4 97 -11 135 -16 83 -12
308 -34 490 -50 72 -6 178 -16 236 -21 485 -47 1734 -62 2313 -29 100 6 298
17 441 25 143 9 312 20 375 25 63 6 196 17 295 25 99 8 223 19 275 25 52 5
163 17 245 25 83 9 186 20 230 25 44 6 139 17 210 25 72 8 162 20 200 25 39 5
124 17 190 25 66 9 149 20 185 25 36 5 115 17 175 25 61 9 135 20 165 25 30 5
105 17 165 25 61 9 130 20 155 25 25 5 68 12 95 15 28 3 75 10 105 16 95 18
152 28 250 44 52 8 118 20 145 25 28 5 91 17 140 25 50 9 108 20 130 25 22 5
83 16 135 25 52 9 113 20 135 25 22 5 78 16 125 25 47 8 105 20 130 25 25 6
92 20 150 31 58 12 157 32 220 45 63 13 140 29 170 35 30 5 69 14 85 18 17 5
57 14 90 21 92 19 186 40 225 50 19 5 69 16 110 25 112 24 201 44 240 55 19 5
55 13 80 19 186 43 311 73 343 81 20 6 54 14 75 20 53 14 320 80 362 90 19 4
105 26 190 48 159 42 206 54 370 99 52 14 109 29 125 33 43 12 210 58 275 76
30 9 70 20 88 25 17 5 47 13 65 18 102 28 149 42 212 60 39 12 99 30 135 40
68 20 254 75 305 90 122 37 304 94 325 101 14 5 86 27 160 50 183 57 729 239
752 251 17 9 17 13 -15 72 -19 34 -91 172 -159 307 -336 658 -398 778 -483
940 -51 96 -145 279 -210 405 -65 127 -123 235 -129 242 -8 8 -20 5 -46 -11z"/>
<path d="M1705 11101 c-81 -37 -164 -158 -185 -272 -14 -75 -12 -216 5 -278
23 -89 62 -157 121 -210 59 -54 106 -69 184 -58 85 11 175 106 222 232 32 88
32 272 0 367 -38 111 -103 191 -185 226 -41 17 -116 14 -162 -7z"/>
<path d="M19505 11101 c-81 -37 -159 -152 -184 -269 -14 -68 -14 -196 0 -264
26 -122 112 -242 196 -274 132 -51 268 38 335 221 32 86 31 283 0 369 -41 111
-106 190 -185 224 -41 17 -116 14 -162 -7z"/>
<path d="M2385 9021 c-89 -50 -480 -283 -492 -293 -16 -13 -17 -89 -2 -143 13
-49 39 -78 93 -103 182 -87 376 -184 380 -191 3 -5 -65 -51 -152 -102 l-157
-94 -3 -47 c-4 -56 23 -153 49 -179 16 -16 23 -17 42 -8 70 36 506 296 525
312 25 23 29 66 11 132 -20 80 -22 81 -256 196 -123 59 -223 112 -223 116 1 4
60 42 132 83 172 98 188 112 188 158 0 78 -44 192 -73 192 -6 0 -34 -13 -62
-29z"/>
<path d="M18601 8774 c-23 -16 -51 -70 -51 -98 0 -8 11 -28 25 -44 14 -17 28
-43 31 -60 8 -40 -22 -139 -51 -168 -21 -21 -27 -22 -55 -12 -48 16 -65 -6
-65 -87 0 -77 20 -103 82 -112 36 -5 45 -1 81 32 97 87 159 322 121 458 -11
40 -63 107 -83 107 -6 0 -22 -7 -35 -16z"/>
<path d="M18846 8738 c-7 -13 -21 -47 -31 -76 -20 -62 -21 -59 65 -347 87
-296 101 -346 98 -357 -2 -6 -42 19 -88 54 -145 108 -203 148 -217 148 -27 0
-83 -130 -83 -189 1 -44 -13 -33 369 -313 95 -70 177 -128 182 -128 16 0 46
50 63 108 l19 60 -58 199 c-31 109 -73 253 -93 321 -19 67 -33 125 -30 127 3
3 63 -38 134 -91 158 -118 168 -123 193 -100 22 20 61 133 61 177 0 37 -16 53
-190 179 -74 55 -180 133 -235 174 -55 42 -110 76 -122 76 -13 0 -29 -10 -37
-22z"/>
<path d="M2840 7833 c-8 -2 -40 -36 -70 -75 -30 -39 -117 -149 -192 -244 -182
-229 -198 -252 -198 -284 0 -29 43 -122 65 -140 9 -8 86 -11 249 -10 130 0
236 -3 236 -7 0 -5 -57 -80 -125 -167 -95 -120 -125 -166 -125 -188 0 -29 27
-91 62 -140 38 -54 52 -43 218 168 266 338 289 368 295 393 9 35 -49 149 -81
162 -15 5 -118 6 -252 2 l-226 -6 18 29 c11 16 45 61 76 99 135 168 160 205
160 242 0 39 -54 149 -79 162 -9 4 -23 6 -31 4z"/>
<path d="M18487 7793 c-42 -67 -47 -81 -47 -131 0 -45 19 -232 55 -531 8 -69
12 -127 9 -130 -3 -3 -14 5 -24 19 -73 98 -218 275 -232 284 -26 16 -47 -1
-85 -64 -37 -61 -42 -112 -16 -150 36 -52 378 -487 411 -522 29 -30 39 -35 54
-27 30 16 78 110 78 152 0 21 -13 161 -30 310 -16 150 -32 295 -35 322 l-5 50
22 -26 c13 -14 72 -87 131 -162 66 -84 114 -137 125 -137 20 0 48 34 81 97 23
47 26 88 8 119 -7 11 -108 143 -225 292 -145 185 -220 272 -233 272 -11 0 -29
-16 -42 -37z"/>
<path d="M18048 7062 c-30 -32 -150 -183 -255 -320 -35 -46 -42 -86 -22 -125
46 -91 375 -640 385 -644 32 -12 124 100 124 150 0 35 8 19 -167 320 l-144
248 27 37 c16 20 53 69 84 108 84 105 88 120 55 193 -15 33 -33 62 -40 65 -7
2 -28 -12 -47 -32z"/>
<path d="M3318 7038 c-21 -17 -378 -656 -385 -689 -6 -32 13 -69 66 -129 33
-38 42 -43 58 -34 10 6 49 65 88 132 38 67 74 121 80 119 13 -4 205 -239 205
-251 0 -4 -31 -66 -70 -136 -38 -70 -70 -138 -70 -151 1 -28 13 -51 60 -108
62 -76 58 -80 271 299 144 256 188 343 189 371 0 27 -10 47 -42 86 -47 57 -72
71 -93 53 -7 -6 -42 -63 -77 -125 -35 -63 -67 -114 -73 -114 -13 1 -196 225
-202 248 -3 11 22 67 61 137 84 150 85 167 15 247 -28 31 -54 57 -58 57 -4 0
-14 -6 -23 -12z"/>
<path d="M17494 6404 c-106 -51 -199 -174 -246 -324 -34 -112 -32 -275 6 -385
33 -96 65 -154 118 -211 148 -161 376 -88 498 158 91 185 93 391 6 574 -88
185 -237 259 -382 188z m151 -224 c99 -61 152 -255 109 -399 -11 -39 -29 -67
-64 -102 -45 -45 -53 -49 -98 -49 -119 0 -213 156 -199 333 6 89 35 153 88
202 33 29 46 35 85 35 29 0 59 -8 79 -20z"/>
<path d="M4307 6393 c-8 -10 -37 -70 -62 -133 -26 -63 -49 -118 -52 -123 -2
-4 -17 3 -33 17 -44 36 -118 69 -170 74 -113 11 -213 -61 -280 -203 -50 -106
-65 -170 -64 -285 1 -153 56 -296 151 -393 l47 -48 -57 -140 c-31 -76 -57
-153 -57 -171 0 -24 11 -42 49 -79 27 -28 57 -49 69 -49 27 0 39 20 97 160 26
63 51 118 54 122 4 4 31 -10 61 -31 157 -111 311 -67 408 116 64 122 88 290
61 439 -14 80 -78 210 -133 271 -26 28 -46 54 -46 58 0 4 23 61 50 126 66 156
66 184 4 244 -49 49 -72 55 -97 28z m-238 -397 c49 -26 51 -36 26 -96 -12 -30
-58 -139 -100 -242 -43 -104 -82 -188 -87 -188 -21 0 -59 60 -79 124 -69 220
87 481 240 402z m240 -210 c52 -55 80 -187 61 -282 -28 -135 -94 -222 -176
-232 -49 -5 -107 16 -118 44 -6 14 192 494 204 494 3 0 16 -11 29 -24z"/>
<path d="M16963 5903 c-201 -153 -334 -263 -349 -290 -21 -37 -18 -51 61 -268
113 -315 122 -428 41 -504 -32 -30 -34 -73 -6 -118 36 -60 93 -51 163 26 58
64 70 102 70 216 0 114 -25 224 -99 443 -25 74 -44 135 -42 136 2 1 36 28 76
60 l72 57 16 -36 c8 -20 57 -154 109 -297 94 -261 115 -308 137 -308 23 0 118
81 124 106 7 29 -3 67 -51 199 -18 50 -72 198 -120 330 -48 132 -93 250 -101
263 -20 31 -45 28 -101 -15z"/>
<path d="M4779 5517 c-161 -60 -274 -301 -255 -544 14 -192 116 -361 258 -433
234 -117 457 112 458 471 0 160 -51 299 -146 399 -93 98 -222 142 -315 107z
m171 -227 c99 -51 145 -210 105 -365 -51 -198 -199 -257 -305 -122 -53 67 -70
218 -37 328 30 99 105 179 170 179 15 0 46 -9 67 -20z"/>
<path d="M16159 5327 c-129 -48 -240 -185 -280 -347 -19 -77 -16 -259 5 -340
10 -36 33 -95 53 -132 112 -215 304 -249 479 -86 107 101 164 243 164 414 0
213 -96 417 -225 479 -50 24 -148 30 -196 12z m132 -230 c109 -73 153 -302 85
-441 -38 -78 -84 -111 -153 -111 -51 0 -57 2 -97 45 -130 137 -123 413 12 505
48 32 107 33 153 2z"/>
<path d="M5395 5168 c-2 -7 -60 -231 -129 -498 -180 -700 -177 -690 -156 -730
12 -22 89 -70 113 -70 29 0 47 44 98 246 28 110 54 203 58 207 5 5 11 -11 15
-34 9 -59 62 -155 105 -189 35 -30 108 -60 144 -60 86 0 188 83 242 195 55
114 77 211 79 350 1 136 -12 202 -56 286 -53 101 -135 159 -225 159 -43 0 -59
-5 -97 -35 -25 -19 -46 -32 -47 -27 -1 4 0 21 1 38 4 87 -50 174 -110 174 -17
0 -33 -6 -35 -12z m311 -353 c119 -91 107 -392 -21 -504 -35 -30 -43 -33 -87
-29 -60 6 -97 38 -129 112 -56 129 -21 324 73 413 53 50 105 53 164 8z"/>
<path d="M15602 4993 c-70 -41 -71 -50 -27 -233 21 -88 36 -162 34 -164 -12
-9 -249 -126 -257 -126 -5 0 -24 66 -43 147 -18 81 -41 156 -50 167 l-17 21
-56 -27 c-30 -15 -63 -39 -72 -53 -20 -31 -37 53 141 -705 20 -85 44 -163 53
-173 20 -22 50 -16 107 22 34 23 40 32 43 67 2 23 -11 98 -28 169 -16 70 -30
135 -30 145 0 14 33 35 121 80 67 34 126 59 132 57 7 -3 27 -72 46 -153 18
-82 38 -155 43 -161 21 -26 85 -9 141 36 26 22 21 76 -24 265 -22 94 -63 266
-90 381 -27 116 -55 222 -61 238 -13 35 -46 35 -106 0z"/>
<path d="M6111 4762 c-12 -22 -171 -807 -171 -843 0 -14 8 -33 18 -41 20 -18
97 -58 111 -58 25 0 43 62 96 330 31 157 60 292 63 300 8 19 19 -150 21 -308
1 -154 12 -182 76 -211 26 -12 53 -21 60 -21 24 0 56 50 135 215 45 94 85 164
87 157 3 -7 -7 -65 -21 -130 -14 -64 -42 -200 -61 -302 -35 -179 -35 -185 -18
-208 21 -28 105 -64 127 -56 8 3 20 20 25 37 21 67 161 775 161 815 0 51 -13
64 -106 104 -112 48 -116 46 -200 -112 -40 -74 -85 -157 -101 -185 l-28 -50
-3 40 c-1 22 -6 129 -10 237 -7 189 -8 198 -31 222 -14 14 -28 26 -32 26 -4 0
-37 14 -72 30 -75 34 -112 38 -126 12z"/>
<path d="M14902 4640 c-34 -34 -54 -87 -77 -210 -33 -173 -37 -190 -44 -190
-4 0 -42 47 -85 105 -43 58 -89 114 -103 125 -31 24 -80 26 -111 4 -26 -18
-52 -64 -52 -92 0 -10 59 -87 130 -170 72 -83 130 -155 130 -160 0 -5 -27
-112 -59 -237 -64 -245 -65 -267 -14 -280 34 -8 93 22 118 61 14 20 33 92 54
195 18 90 36 167 40 171 3 4 44 -44 90 -106 47 -63 97 -121 113 -131 50 -29
122 2 148 65 15 37 16 36 -142 222 -62 73 -108 135 -108 147 0 12 25 118 55
237 30 119 55 221 55 225 0 5 -9 18 -20 29 -31 31 -82 26 -118 -10z"/>
<path d="M7027 4396 c-114 -31 -172 -161 -113 -251 22 -34 50 -31 99 9 55 44
97 57 140 45 80 -22 117 -79 117 -179 0 -54 -2 -61 -17 -56 -93 29 -154 38
-238 34 -83 -3 -95 -6 -129 -32 -71 -54 -98 -123 -98 -248 0 -56 6 -89 22
-125 69 -156 247 -203 363 -95 l27 26 0 -48 c0 -83 45 -136 114 -136 32 0 36
3 46 38 10 35 66 376 91 550 35 252 -75 431 -292 472 -63 12 -72 12 -132 -4z
m177 -568 l38 -12 -5 -53 c-7 -66 -47 -137 -89 -159 -48 -25 -115 -14 -150 25
-56 63 -45 169 22 204 38 20 107 18 184 -5z"/>
<path d="M14060 4347 c-125 -35 -222 -153 -265 -322 -19 -75 -19 -248 -1 -336
31 -144 114 -271 206 -312 72 -32 172 -27 253 13 35 17 80 45 100 61 45 37 97
139 97 191 0 53 -23 104 -50 111 -24 6 -31 -1 -82 -78 -58 -86 -150 -134 -223
-114 -42 12 -100 76 -116 128 -7 23 -10 43 -8 44 2 2 99 34 214 72 116 37 220
74 233 82 26 16 27 37 6 141 -48 237 -195 365 -364 319z m131 -213 c31 -30 75
-132 62 -145 -9 -9 -284 -99 -303 -99 -16 0 -6 107 15 158 49 116 153 156 226
86z"/>
<path d="M7587 4209 c-26 -41 -124 -850 -108 -892 12 -31 30 -37 416 -137 66
-17 123 -34 126 -38 4 -4 0 -60 -8 -124 -18 -139 -14 -165 30 -182 104 -42
113 -34 137 124 27 176 35 301 21 327 -6 12 -27 27 -46 33 -19 6 -35 15 -35
18 0 4 16 140 36 302 51 426 50 407 30 429 -20 23 -106 46 -134 36 -11 -3 -22
-16 -25 -28 -7 -26 -50 -356 -72 -546 -9 -73 -18 -137 -20 -142 -5 -7 -250 52
-261 63 -4 5 27 292 62 567 9 68 13 134 10 147 -7 28 -47 51 -104 60 -35 5
-42 3 -55 -17z"/>
<path d="M13580 4175 c-25 -7 -133 -35 -240 -63 -239 -61 -248 -65 -256 -97
-7 -28 3 -124 14 -141 15 -22 44 -23 118 -4 115 30 110 32 118 -52 27 -277 75
-622 89 -635 12 -13 24 -13 70 -3 30 6 63 20 72 30 22 24 19 71 -25 443 -21
177 -30 281 -24 287 5 5 46 19 89 30 100 25 115 41 115 122 0 80 -11 98 -58
97 -20 -1 -57 -7 -82 -14z"/>
<path d="M8363 4019 c-6 -8 -14 -30 -18 -49 -11 -63 -72 -823 -67 -848 6 -30
57 -62 98 -62 38 0 36 -2 224 255 180 246 159 219 164 214 2 -2 -5 -101 -15
-219 -10 -118 -18 -229 -19 -246 0 -46 28 -74 83 -85 53 -10 73 -5 87 22 8 15
80 802 80 876 0 49 -90 88 -136 58 -12 -8 -93 -111 -180 -230 -86 -119 -161
-218 -165 -221 -12 -7 -11 35 6 226 20 227 20 273 -4 294 -25 23 -122 33 -138
15z"/>
<path d="M12708 3968 c-35 -30 -43 -47 -98 -212 -26 -78 -51 -140 -56 -140 -4
1 -41 60 -80 130 -80 143 -116 180 -169 169 -16 -3 -40 -16 -52 -28 -46 -47
-42 -58 81 -256 l114 -184 -23 -61 c-13 -33 -51 -131 -84 -215 -34 -85 -61
-163 -61 -172 0 -24 47 -59 79 -59 34 0 83 30 99 61 7 13 34 91 61 172 27 81
51 150 54 153 3 3 35 -52 73 -123 37 -70 80 -140 95 -155 43 -44 121 -35 155
18 23 35 19 45 -105 246 -55 91 -101 170 -101 175 0 5 28 83 63 174 109 282
104 264 80 296 -28 38 -87 43 -125 11z"/>
<path d="M9278 3871 c-150 -60 -244 -226 -255 -450 -13 -257 94 -463 271 -521
21 -7 66 -12 101 -12 161 1 290 136 330 346 65 339 -90 637 -339 652 -44 3
-74 -1 -108 -15z m155 -205 c80 -33 130 -140 130 -276 0 -144 -52 -253 -138
-285 -45 -18 -48 -18 -93 1 -35 14 -56 32 -79 68 -42 61 -55 112 -56 206 0
204 111 339 236 286z"/>
<path d="M12011 3871 c-13 -3 -29 -14 -35 -23 -7 -12 -5 -144 7 -455 20 -490
18 -483 86 -483 54 0 99 18 107 43 7 22 0 265 -20 654 -9 167 -17 247 -26 257
-13 17 -73 20 -119 7z"/>
<path d="M9872 3822 c-12 -2 -27 -12 -32 -23 -6 -11 -15 -168 -20 -377 -13
-483 -12 -525 3 -546 15 -21 123 -33 147 -17 17 11 28 117 29 274 l1 97 94 0
c51 0 115 -3 141 -7 l48 -6 -5 -161 c-5 -157 0 -202 25 -218 24 -15 124 -9
138 9 11 12 16 74 20 252 14 482 14 669 0 685 -19 23 -133 22 -152 -1 -10 -11
-15 -62 -19 -182 l-5 -166 -135 4 c-74 2 -137 5 -139 7 -2 2 -3 78 -2 168 1
99 -2 173 -8 185 -11 19 -74 31 -129 23z"/>
<path d="M11342 3813 c-12 -2 -29 -15 -38 -28 -13 -20 -13 -64 1 -421 9 -220
18 -418 21 -441 8 -66 23 -76 113 -68 258 21 325 39 389 109 55 60 77 130 76
241 -4 228 -108 326 -328 310 l-93 -7 -5 134 c-6 162 -13 179 -71 177 -23 -1
-52 -4 -65 -6z m316 -499 c53 -37 70 -140 32 -202 -24 -39 -47 -49 -125 -53
l-60 -4 -7 120 c-4 66 -5 125 -3 132 3 10 30 15 115 21 14 1 36 -5 48 -14z"/>
<path d="M10580 3780 c-19 -19 -20 -33 -20 -447 0 -266 4 -442 11 -465 l10
-38 68 0 c47 0 72 4 80 14 8 9 13 73 14 188 l2 173 134 9 c110 7 135 6 142 -5
5 -8 9 -89 9 -180 0 -194 2 -199 88 -199 39 0 57 5 72 20 21 21 21 29 18 469
-2 362 -6 451 -17 464 -19 24 -133 24 -152 0 -10 -11 -15 -63 -19 -187 l-5
-171 -135 0 -135 0 -5 171 c-4 124 -9 176 -19 187 -21 26 -115 23 -141 -3z"/>
</g>
</svg>
